<?xml version="1.0" encoding="UTF-8"?>
<svg id="Layer_1" xmlns="http://www.w3.org/2000/svg" version="1.1" viewBox="0 0 31.88 32">
  <!-- Generator: Adobe Illustrator 29.5.0, SVG Export Plug-In . SVG Version: 2.1.0 Build 137)  -->
  <defs>
    <style>
      .st0 {
        fill: #a30922;
      }

      .st1 {
        fill: #fff;
      }

      .st2 {
        fill: #ed4136;
      }

      .st3 {
        fill: #ff9583;
      }
    </style>
  </defs>
  <path class="st1" d="M4.87,14.41c.1-.07.11-.1.08-.22-.1-.31-.23-.62-.27-.95-.11.38-.17.76-.19,1.14,0,.05.03.08.08.08.11.01.22,0,.31-.06Z"/>
  <path class="st2" d="M4.64,19.32s.05,0,.06-.02c.04-.06.08-.12.12-.17.13-.18.12-.14.01-.33,0-.01-.02-.02-.05-.05-.08.12-.16.23-.23.34-.03.06.02.21.08.24Z"/>
  <path class="st2" d="M4.26,17.4s-.05-.04-.08,0c-.06.08-.13.16-.19.25-.09.14-.08.18.04.34.02-.01.03-.02.03-.02.06-.09.12-.18.19-.27.09-.1.05-.19,0-.29Z"/>
  <path class="st2" d="M4.95,19.75c.06-.1.12-.2.17-.29.02-.04.02-.08,0-.12-.03-.05-.04-.11-.1-.16-.07.08-.11.17-.16.24-.09.14-.09.2,0,.33.03.04.05.04.08,0Z"/>
  <path class="st2" d="M4.43,18.92s.03,0,.04-.01c.04-.05.08-.11.12-.16q.15-.21.03-.43s0,0,0-.01c-.03-.05-.05-.06-.09,0-.06.1-.12.19-.18.29-.02.03-.03.06-.02.09.03.08.06.16.11.23Z"/>
  <path class="st2" d="M19.71,10.84c-.06-.05-.13-.1-.19-.15-.05-.04-.09-.03-.13.01-.06.06-.11.13-.17.19-.44.46-.92.87-1.4,1.29-.15.14-.15.14,0,.26.11.09.11.09.21-.01.27-.27.56-.52.85-.76.27-.22.53-.47.79-.7.02-.02.05-.04.06-.07,0-.02-.01-.04-.03-.05Z"/>
  <path class="st2" d="M4.24,18.38c.06-.09.12-.18.18-.27.08-.12.06-.2-.06-.31-.06.09-.12.17-.18.26-.1.15-.1.17.02.34.02-.01.03-.01.03-.02Z"/>
  <path class="st1" d="M15.79,13.02c.03.33.1.66.23.97.1.24.28.39.54.45.15.03.31.04.47.08.09.02.17,0,.24-.05.18-.13.36-.26.54-.4.14-.11.28-.23.42-.34.1-.08.1-.09.01-.18-.07-.07-.13-.14-.21-.2-.49-.39-.99-.78-1.54-1.09-.2-.11-.39-.22-.6-.31-.12-.06-.14-.05-.14.09,0,.11,0,.22,0,.35-.01.2,0,.42.03.64Z"/>
  <path class="st2" d="M5.13,20.12s.04-.02.05-.04c.05-.08.1-.16.15-.24.05-.07.04-.13-.03-.19-.03-.03-.06-.03-.08,0-.06.1-.11.21-.16.32-.02.05.02.14.06.14Z"/>
  <path class="st2" d="M18.74,13.19s.07.03.11,0c.26-.22.46-.5.66-.78-.09.04-.16.11-.23.18-.18.16-.35.32-.53.48-.04.04-.06.07-.01.12Z"/>
  <path class="st2" d="M20.23,11.44c.06-.11.06-.13-.04-.21-.05-.05-.11-.09-.17-.14-.13-.11-.13-.11-.25.01-.31.31-.62.62-.95.91-.21.19-.42.38-.63.57-.09.08-.09.09,0,.16.09.07.18.13.26.2.02.01.04.02.05.03.05,0,.08-.03.1-.06.1-.1.2-.2.31-.29.3-.25.6-.5.9-.76.15-.13.3-.25.4-.42Z"/>
  <path class="st2" d="M5.48,19.95c-.05,0-.07.06-.07.12.06,0,.11,0,.17-.03-.03-.04-.04-.1-.09-.09Z"/>
  <path class="st2" d="M28.66,19.63c.06.04.1.03.15-.01.1-.08.2-.17.29-.25.18-.16.36-.31.53-.48.02-.02.05-.03.05-.07-.03-.05-.07-.07-.11-.11-.11-.1-.11-.1-.22,0-.22.23-.47.45-.72.65-.18.14-.21.11.02.27Z"/>
  <path class="st2" d="M28.05,19.17c.06.05.13.1.19.15.09.06.09.06.17,0,.11-.09.21-.19.32-.29.18-.17.34-.36.54-.51.05-.04.04-.07,0-.1-.08-.08-.17-.16-.25-.23-.01-.01-.03-.02-.05-.03-.05,0-.07.04-.1.06-.12.12-.24.25-.36.36-.16.15-.32.29-.48.43-.08.07-.08.09,0,.15Z"/>
  <path class="st2" d="M28.33,17.65s.05-.04.05-.08c0-.05-.24-.26-.28-.26-.04,0-.06.04-.09.07-.27.26-.55.51-.84.76-.07.06-.18.11-.19.19,0,.09.13.12.2.18.11.09.11.08.21,0,.04-.04.08-.07.12-.11.27-.25.54-.5.81-.74Z"/>
  <path class="st2" d="M27.71,16.39c.66.59,1.3,1.21,1.91,1.85.2.22.39.45.49.73.01.03.03.06.06.07.09.04.1.05.03.12-.21.21-.41.43-.64.62-.08.07-.16.14-.24.2-.05.04-.04.07,0,.1.09.07.12.07.21,0,.16-.13.32-.27.5-.39.05-.03.09-.07.15-.08.03,0,.07,0,.09.03.02.03.01.07,0,.09-.03.04-.07.07-.1.1-.16.13-.32.27-.5.39-.08.06-.08.07,0,.13.05.04.09.04.14,0,.11-.09.23-.19.35-.28.04-.03.08-.08.12-.03.05.05.01.1-.02.14-.06.06-.12.12-.18.18-.02.02-.07.04-.05.1.22,0,.45.03.67.03.08,0,.16,0,.24-.02.12-.02.12-.03.08-.14-.13-.36-.21-.73-.3-1.11-.27-1.12-.65-2.2-1.16-3.23-.34-.7-.69-1.39-1.06-2.08-.28-.52-.57-1.04-.86-1.56-.02-.04-.04-.09-.09-.12-.02.07,0,.12,0,.18.08.54.13,1.09.15,1.64.03.63-.06,1.25-.15,1.87-.05.32-.09.24.15.46Z"/>
  <path class="st2" d="M19.24,10.48c-.08-.06-.16-.11-.23-.16-.04-.03-.08-.02-.11.02-.02.02-.04.04-.06.06-.46.52-.95,1-1.47,1.46-.16.14-.16.14.02.26.1.06.11.07.19-.02.25-.25.52-.48.79-.71.29-.25.57-.51.84-.78.02-.02.05-.04.06-.07,0-.03,0-.04-.02-.06Z"/>
  <path class="st2" d="M27.5,18.75c.07.05.13.1.19.15.11.08.12.09.21,0,.25-.23.5-.47.75-.7.04-.04.08-.08.12-.12.02-.02.03-.04.03-.07,0-.02-.02-.04-.04-.06-.05-.05-.11-.11-.16-.16-.08-.07-.08-.07-.16,0-.2.19-.39.39-.6.57-.11.1-.23.2-.35.3-.04.04-.05.07,0,.1Z"/>
  <path class="st3" d="M23.65,7.82c-.45.15-.83.42-1.17.73-.17.16-.32.33-.43.53-.17.33-.35.67-.49,1.02-.15.39-.33.76-.53,1.13-.43.76-.96,1.45-1.57,2.07-.3.31-.61.61-.94.89-.61.52-1.24,1-1.92,1.43-.51.32-1.04.59-1.57.86-.58.29-1.15.6-1.75.86-.58.25-1.15.54-1.7.85-.75.43-1.43.96-2.11,1.48-.14.11-.28.22-.41.33-.04.03-.09.06-.09.14.21,0,.4.02.6.03.08,0,.16-.02.23-.06.53-.32,1.04-.68,1.5-1.1.1-.09.21-.19.33-.26.14-.08.21-.08.33.04.06.06.13.07.21.05.08-.02.15-.06.23-.09.33-.16.67-.33,1.01-.49.28-.13.56-.24.86-.31.04-.01.09-.02.11.03.02.04,0,.07-.03.1-.08.09-.16.18-.25.25-.41.34-.87.6-1.34.84-.12.06-.25.11-.39.13-.22.03-.43.02-.58-.16-.08-.09-.09-.09-.19-.02-.02.02-.05.03-.07.05-.41.31-.82.63-1.26.9-.03.02-.07.02-.07.07.02,0,.04,0,.05,0,.29.01.57.03.86,0,.11-.01.23-.02.34-.03.29-.02.58-.04.87-.06.73-.07,1.45-.19,2.17-.3.55-.08,1.1-.16,1.65-.19.33-.02.66-.04.99-.06.53-.04,1.06-.05,1.59-.07.58-.02,1.17,0,1.75.05.16.01.31.02.47.03.07,0,.13,0,.18-.06.32-.33.65-.64.95-.99.41-.48.77-.99,1.11-1.51.52-.79,1.04-1.59,1.56-2.39.03-.04.05-.13.12-.09.07.03.02.1,0,.15-.1.34-.24.66-.39.99-.25.54-.5,1.08-.75,1.63-.24.54-.51,1.07-.86,1.55-.21.29-.36.62-.69.86.14.02.24.03.34.04.4.04.81.08,1.21.13.57.06,1.14.13,1.71.2.12.02.17-.02.23-.12.18-.33.36-.66.52-1.01.25-.55.42-1.14.58-1.72.26-.96.41-1.93.36-2.92-.02-.54-.06-1.09-.14-1.63-.1-.69-.21-1.38-.48-2.03-.2-.5-.39-1-.69-1.45-.32-.48-.68-.92-1.17-1.24-.31-.2-.63-.24-.97-.12ZM23.35,8.5c-.08.09-.13.2-.19.3-.21.36-.43.71-.67,1.05-.02.03-.04.06-.06.1-.04.05-.03.08.03.11.27.12.39.37.34.67-.04.22-.13.43-.26.62-.23.37-.51.69-.88.92-.09.06-.19.09-.29.13-.09.03-.18.04-.27,0-.05-.02-.09,0-.12.04-.21.23-.42.45-.62.67-.21.23-.44.43-.67.63-.03.02-.06.07-.09.04-.04-.03,0-.07.03-.1.39-.47.77-.95,1.19-1.39.03-.03.07-.07.1-.1.06-.06.12-.08.19-.02.07.05.13.04.2.02.13-.04.26-.1.37-.19.29-.22.54-.49.73-.8.12-.2.2-.43.2-.58,0-.06-.01-.11-.03-.17-.07-.17-.19-.22-.35-.13-.03.01-.05.03-.07.04-.05.02-.09.03-.13,0-.05-.04-.04-.09-.02-.14.02-.03.04-.07.06-.1.12-.17.24-.35.36-.52.24-.33.47-.66.69-1,.04-.06.08-.13.15-.18.04-.03.08-.05.12,0,.04.04,0,.07-.03.1Z"/>
  <path class="st1" d="M5.99,14.55c.36.05.73.11,1.1.1.25,0,.5-.06.75-.09.37-.05.73-.13,1.09-.23.15-.04.15-.06.09-.2,0-.02-.02-.04-.03-.07-.1-.23-.2-.47-.27-.71-.16-.61-.22-1.23-.25-1.86-.02-.36,0-.73.07-1.08.02-.08,0-.1-.08-.1-.09,0-.18,0-.27,0-.61,0-1.2.11-1.75.37-.24.11-.47.23-.66.42-.34.34-.58.74-.79,1.17-.04.08-.04.16-.03.25.07.54.2,1.06.4,1.57.06.17.17.29.32.36.1.05.19.09.3.1Z"/>
  <path class="st2" d="M29.26,19.85c.23-.2.45-.41.68-.62.11-.1.11-.12,0-.22-.01,0-.02-.02-.03-.03-.05-.04-.08-.05-.13,0-.14.18-.32.32-.5.47-.12.1-.25.2-.4.32.05.04.09.07.13.09.13.09.13.09.26-.02Z"/>
  <path class="st2" d="M27.06,17.98c.26-.23.51-.45.77-.68.15-.14.15-.14,0-.28-.05-.04-.08-.05-.13,0-.14.12-.29.24-.43.35-.03.02-.06.05-.07.09-.06.18-.12.36-.19.57.04-.02.06-.03.07-.04Z"/>
  <path class="st2" d="M27.47,16.99c.18-.15.18-.18,0-.32,0,0-.03,0-.05-.02-.06.15-.08.3-.13.44,0,0,.02.01.03.02.05-.04.1-.08.15-.12Z"/>
  <path class="st2" d="M18.18,9.79c-.09-.06-.11-.06-.19.01-.02.02-.04.04-.06.06-.5.53-1.01,1.05-1.6,1.49-.02.02-.05.03-.06.08.05.03.09.05.14.08.13.07.14.07.25-.03.53-.46,1.05-.94,1.56-1.43.16-.15.2-.12-.04-.26Z"/>
  <path class="st0" d="M18.3,28.51c-.16.04-.32.09-.48.13-.05.01-.07.06-.09.1-.16.38-.37.73-.58,1.08-.02.03-.05.06-.04.11.01,0,.03,0,.04,0,.13-.02.26-.04.4-.05.17-.01.27-.08.3-.26,0-.05.03-.09.05-.13.12-.27.24-.55.36-.82.02-.05.06-.09.04-.16Z"/>
  <path class="st0" d="M19.3,28.18c-.19.06-.37.13-.57.19-.1.03-.16.09-.2.18-.14.38-.32.75-.52,1.1-.02.04-.05.07-.05.12.01,0,.03,0,.04,0,.19-.04.37-.09.56-.13.07-.02.11-.05.13-.11.06-.13.12-.27.19-.4.14-.28.28-.56.4-.85.01-.03.04-.06,0-.1Z"/>
  <path class="st0" d="M14.88,29.4c.03-.1,0-.12-.1-.11-.16.02-.32.04-.48.05-.07,0-.1.04-.13.1-.08.18-.18.36-.27.54-.06.11-.11.22-.19.36.25-.02.47-.03.69-.04.06,0,.09-.05.11-.1.06-.11.12-.23.18-.34.08-.14.14-.29.19-.45Z"/>
  <path class="st0" d="M16.64,28.95c-.16.02-.31.08-.47.1-.08.01-.12.05-.16.13-.12.29-.26.56-.4.84,0,.02-.02.03-.02.05-.03.07-.01.09.06.08.13-.01.25-.04.38-.05.06,0,.08-.04.1-.09.14-.31.3-.62.47-.92.02-.04.06-.08.04-.14Z"/>
  <path class="st0" d="M15.78,29.16s-.04-.02-.06-.01c-.17.03-.35.06-.52.09-.08.01-.13.05-.16.14-.09.28-.21.54-.36.79,0,.01-.01.02-.02.04-.02.04,0,.07.04.06.18-.02.36-.04.54-.05.07,0,.12-.05.14-.12.1-.28.23-.55.35-.81.02-.04.05-.07.03-.12Z"/>
  <path class="st0" d="M17.49,28.87s.06-.08.05-.13c-.02-.02-.04-.01-.06,0-.17.04-.34.09-.51.13-.06.01-.1.05-.12.11-.13.3-.28.58-.43.87-.03.06-.06.13-.1.2.13.02.24-.03.35-.03.17,0,.29-.06.34-.24.02-.07.07-.14.1-.2.13-.23.26-.47.38-.7Z"/>
  <path class="st2" d="M18.38,10.15c-.41.42-.83.83-1.27,1.22-.1.09-.21.18-.32.27-.03.02-.06.05-.02.08.07.06.15.11.24.15.02.01.05,0,.06-.02.03-.03.06-.06.09-.09.28-.27.57-.54.85-.81.24-.23.47-.46.71-.69.02-.02.05-.04.05-.08,0,0-.02-.03-.03-.04-.15-.15-.22-.15-.36,0Z"/>
  <path class="st0" d="M21.33,27.45s-.06,0-.09,0c-.51.19-1.02.38-1.53.57-.07.03-.11.07-.13.14-.12.33-.27.64-.44.95-.08.14-.15.28-.24.43.06,0,.1-.01.14-.02.49-.14.97-.33,1.45-.5.19-.07.31-.17.39-.37.13-.35.29-.7.42-1.05.02-.05.05-.09.03-.14Z"/>
  <path class="st0" d="M23.5,26.49c-.06,0-.1.03-.14.05-.3.14-.6.28-.9.41-.26.11-.52.22-.78.32-.07.03-.12.07-.13.15-.02.09-.05.18-.08.27-.11.33-.27.64-.41.96-.01.03-.05.06-.01.11.06,0,.11-.03.16-.06.51-.24,1.01-.49,1.51-.75.07-.03.12-.08.15-.15.19-.39.38-.77.57-1.15.03-.05.06-.1.06-.17Z"/>
  <path class="st0" d="M12.24,29.64c.07-.15.07-.16-.1-.16-.11,0-.22,0-.33,0,0,0,0-.01,0-.02-.12,0-.24,0-.36,0-.05,0-.09,0-.11.06-.08.23-.18.46-.28.69-.03.06,0,.08.06.08.23.02.46.03.69.03.07,0,.11-.03.13-.09.06-.12.13-.25.19-.37.04-.08.08-.15.11-.23Z"/>
  <path class="st2" d="M4.19,20.39c.17-.05.34-.1.51-.15.09-.03.09-.03.05-.11-.06-.13-.13-.26-.21-.37-.23-.31-.41-.64-.56-1-.18-.43-.38-.85-.56-1.27-.19-.46-.32-.95-.45-1.43-.1-.35-.2-.7-.26-1.06-.09-.5-.15-1-.18-1.51-.03-.5-.04-1,.02-1.5.16-1.3.51-2.54,1.17-3.68.31-.54.65-1.04,1.14-1.44.37-.3.77-.55,1.24-.67.27-.07.54-.11.82-.04.04.01.11,0,.11.07,0,.06-.07.06-.11.06-.11.01-.22,0-.33.03-.46.1-.88.27-1.26.56-.34.26-.64.56-.89.91-.38.53-.69,1.12-.93,1.72-.37.9-.55,1.85-.62,2.82-.06.76,0,1.53.13,2.28.1.62.27,1.23.44,1.84.08.3.17.6.29.89.03.07.05.15.11.22.09-.12.18-.24.27-.35.05-.06.07-.13.05-.21-.04-.15-.07-.31-.11-.46-.09-.44-.18-.89-.19-1.35,0-.47.03-.94.12-1.4.14-.82.42-1.6.9-2.29.54-.77,1.25-1.33,2.18-1.54.03,0,.06-.02.1-.03.52-.18,1.06-.24,1.61-.24.29,0,.58,0,.87.02.39.02.78.05,1.17.1.68.08,1.35.21,2.01.37.24.06.42.04.58-.15.07-.09.17-.15.26-.22.02-.02.06-.05.09-.02.04.04,0,.07-.03.09-.09.09-.18.18-.27.28-.03.04-.11.06-.08.12.02.05.1.04.15.06.06.01.1-.03.14-.06.16-.13.33-.27.49-.4.1-.09.2-.18.3-.26.03-.02.06-.07.1-.04.04.04,0,.07-.03.09-.15.17-.29.35-.47.5-.08.07-.16.15-.24.22.22.12.25.12.41-.03.37-.36.76-.71,1.15-1.06.06-.06.13-.11.2-.17.02-.02.05-.04.08-.01.03.02,0,.05,0,.08-.02.03-.04.05-.07.08-.33.37-.7.72-1.06,1.07-.07.06-.13.14-.2.21.19.1.21.1.35-.04,0,0,.01-.01.02-.02.54-.55,1.07-1.1,1.63-1.63.09-.08.09-.09-.02-.15-.43-.24-.86-.47-1.32-.65-.6-.24-1.2-.47-1.8-.7-.74-.28-1.48-.56-2.24-.77-.22-.06-.43-.13-.65-.17-.03,0-.07-.01-.07-.05,0-.05.04-.06.08-.06.03,0,.07,0,.1,0,.12,0,.23.02.34.04.72.14,1.43.34,2.13.57.6.2,1.2.43,1.79.64.54.2,1.07.43,1.58.7.42.23.85.46,1.27.69,1.01.56,1.97,1.19,2.84,1.96.04.04.08.08.14.1.04-.02.05-.06.07-.1.1-.21.2-.42.3-.64.2-.46.4-.91.63-1.35.06-.12.12-.24.21-.34.45-.58,1.02-1,1.71-1.25.22-.08.46-.1.69-.08.12,0,.24.05.39.08-.08-.11-.15-.2-.23-.28-.37-.38-.76-.75-1.15-1.12-.42-.39-.83-.78-1.26-1.15-.79-.7-1.69-1.25-2.62-1.74-.67-.35-1.37-.61-2.08-.86-.42-.15-.84-.28-1.28-.36-.44-.08-.88-.14-1.32-.15-.32-.01-.64,0-.96.01-.62.03-1.24.1-1.84.24-.42.1-.85.2-1.22.43-.31.18-.63.32-.97.41-.39.1-.78.15-1.17.04-.13-.04-.27-.06-.4-.09-.58-.14-1.15-.29-1.73-.4-.36-.07-.72-.12-1.08-.1-.13,0-.26.03-.37.09-.61.36-1.19.75-1.65,1.29-.38.44-.71.91-.97,1.43-.5,1.02-.83,2.1-1.07,3.2-.19.85-.28,1.72-.31,2.59-.02.65-.04,1.3.02,1.95.04.56.13,1.11.26,1.66.2.9.53,1.77.89,2.61.32.73.69,1.44,1.15,2.09.29.42.62.81.94,1.21.05.06.11.08.19.06ZM13.54,2.5c.09-.2.24-.33.45-.4.22-.07.45-.1.68-.1.05,0,.11,0,.12.05,0,.06-.06.07-.1.08-.12.03-.24.05-.36.08-.41.09-.56.28-.59.69-.02.34.09.63.27.91.23.37.52.68.84.97.5.45,1.07.79,1.7,1.01.46.16.94.26,1.43.25.32,0,.64-.07.92-.23.17-.09.3-.22.41-.37.12-.16.14-.34.1-.53-.04-.2-.12-.39-.22-.57-.06-.1-.07-.17-.02-.22.05-.06.13-.07.24-.02.35.16.68.35,1,.55.62.39,1.2.83,1.8,1.26.03.02.07.04.08.1-.07.01-.11-.02-.16-.05-.44-.23-.87-.48-1.29-.74-.3-.18-.61-.36-.92-.53-.1-.06-.21-.11-.32-.15-.03.03-.01.06,0,.09.22.63.02,1.14-.56,1.46-.28.16-.59.25-.91.28-.72.06-1.4-.08-2.05-.36-1.03-.44-1.81-1.16-2.4-2.1-.13-.2-.21-.42-.24-.65-.04-.26.01-.51.12-.75Z"/>
  <path class="st2" d="M17.88,9.61c-.11-.06-.21-.12-.32-.19-.05-.03-.08,0-.11.03-.06.06-.12.13-.18.19-.47.48-.95.94-1.44,1.4-.03.03-.06.05-.08.08-.03.03-.03.06.01.08.08.04.16.07.23.11.08.04.14.03.21-.03.14-.12.29-.24.42-.36.43-.39.82-.81,1.25-1.21.02-.02.04-.03.04-.06,0-.02-.01-.04-.03-.05Z"/>
  <path class="st2" d="M16.45,8.98c-.22.22-.43.43-.65.65-.3.3-.59.6-.9.88-.07.06-.15.11-.22.21.11.05.2.08.28.12.06.03.11.02.15-.03.07-.08.15-.16.22-.24.44-.47.9-.94,1.36-1.39.03-.03.06-.06.09-.09.02-.02.02-.04,0-.06-.08-.11-.23-.12-.33-.02Z"/>
  <path class="st0" d="M11.08,29.45c-.23-.02-.46-.04-.68-.06-.13,0-.13,0-.18.11-.09.19-.17.38-.26.57-.05.11-.05.12.06.13.22.03.44.05.65.07h0s.08,0,.11,0c.07.01.11-.02.13-.08.08-.22.16-.43.24-.64.03-.09.02-.1-.07-.11Z"/>
  <path class="st2" d="M17.25,9.25s-.1-.06-.15-.08c-.11-.06-.12-.06-.21.03-.13.13-.25.27-.38.41-.4.42-.79.84-1.21,1.24-.09.09-.09.09.02.15.03.01.05.03.08.04.12.05.12.05.21-.04.35-.35.71-.7,1.06-1.05.19-.19.37-.38.56-.58.02-.02.05-.04.05-.08,0-.02-.02-.04-.03-.05Z"/>
  <path class="st1" d="M10.06,10.39c-.34-.04-.68-.07-1.03-.07-.14,0-.14,0-.16.14-.03.32-.02.64,0,.96.02.42.08.83.15,1.24.09.5.24.97.46,1.43.04.09.1.15.19.18.15.05.3.11.45.15.53.12,1.07.22,1.62.21.09,0,.17,0,.26,0,.33.02.65,0,.97-.05.55-.08,1.1-.2,1.64-.32.22-.05.45-.09.66-.17.17-.07.17-.07.12-.24-.09-.33-.14-.66-.13-1,.01-.34.05-.68.12-1.01.02-.12.02-.12-.08-.17-.2-.1-.4-.2-.61-.28-1-.4-2.05-.63-3.12-.8-.5-.08-1.01-.14-1.52-.19Z"/>
  <path class="st0" d="M13.3,29.43c-.08,0-.15.02-.23.02-.1,0-.14.05-.18.13-.07.19-.15.38-.23.57-.08.2-.08.2.13.2.04,0,.08,0,.11,0,.05,0,.09-.02.11-.07.1-.26.22-.52.34-.77.03-.06.01-.08-.06-.08Z"/>
  <path class="st0" d="M13.95,29.39c-.05-.02-.1,0-.15,0-.1,0-.16.04-.2.13-.09.2-.2.4-.29.61-.03.07-.11.14-.07.2.05.06.14,0,.22,0,.07,0,.1-.03.13-.09.08-.25.22-.48.32-.72.02-.04.05-.08.04-.14Z"/>
  <path class="st0" d="M12.71,29.54s0-.04-.02-.05c-.06-.04-.2,0-.22.07-.1.24-.21.47-.33.69-.04.06-.02.08.05.09.02,0,.04,0,.06,0,.13,0,.14,0,.19-.12.08-.2.16-.4.25-.59.01-.03.02-.05.03-.08Z"/>
  <path class="st0" d="M27.31,24.1s-.03,0-.04,0c-.06.03-.12.06-.17.1-1.14.66-2.28,1.33-3.47,1.9-.87.42-1.75.78-2.66,1.11-.6.22-1.2.43-1.81.65-.5.18-1.02.32-1.54.45-.71.18-1.42.36-2.14.49-.4.07-.8.11-1.21.16-.56.06-1.13.11-1.7.14-.43.02-.86.02-1.29-.01-.2-.01-.4-.02-.6-.03-1.19-.08-2.38-.21-3.54-.52-.76-.21-1.5-.46-2.21-.8-.5-.24-.97-.51-1.41-.85-.08-.07-.16-.14-.23-.22-.02-.02-.04-.07-.08-.04,0,0,0,0,0,0,1.16,1.07,2.72,2.04,4.74,2.34,5.28.8,9.42-.02,14.41-2.19,1.51-.66,3.24-1.61,4.94-2.64,0,0,0-.02-.01-.02Z"/>
  <path class="st0" d="M24.98,24.64s-.07.02-.11.03c-.21.05-.42.13-.62.21-.38.15-.74.33-1.11.51-.04.02-.08.05-.14.05.04-.06.07-.12.1-.18.07-.12.13-.25.15-.38.05-.27-.04-.49-.26-.65-.12-.08-.25-.13-.39-.17-.35-.08-.69-.07-1.04-.01-.72.12-1.43.32-2.11.59-.85.33-1.65.76-2.35,1.35-.26.22-.51.46-.71.75-.12.17-.2.34-.24.55-.03.16,0,.3.09.44.03.05.08.08.15.06.06-.02.09-.07.1-.13,0-.02,0-.05,0-.07-.05-.21.02-.4.14-.57.14-.21.31-.39.49-.56.48-.44,1.03-.8,1.61-1.09,1.01-.5,2.07-.84,3.19-.96.21-.02.41,0,.61.04.08.01.15.04.21.08.12.07.15.16.13.29-.01.07-.04.14-.07.2-.1.2-.23.38-.36.57-.06.08-.12.15-.16.24-.03.07-.03.14.02.2.05.06.12.08.2.05.06-.02.11-.05.17-.08.43-.24.86-.47,1.31-.68.32-.15.63-.32.93-.51.04-.02.07-.05.11-.07.03-.02.06-.04.04-.08-.02-.03-.05-.02-.08-.02Z"/>
  <path class="st0" d="M27.31,24.15s-.05.05-.07.07c-.22.17-.44.34-.67.49-.85.55-1.72,1.06-2.62,1.53-.1.05-.18.12-.22.23-.08.21-.2.41-.31.61-.13.23-.26.46-.41.71.07,0,.11-.04.15-.06.42-.21.82-.44,1.23-.67.75-.43,1.49-.88,2.18-1.41.55-.43,1.09-.87,1.62-1.32.47-.4.93-.81,1.39-1.22.37-.33.7-.7,1.02-1.08-1.02.68-2.14,1.4-3.27,2.09,0,0,0,.02-.01.03Z"/>
  <path class="st2" d="M31.17,21.02c.02-.09,0-.11-.09-.08-.33.14-.67.14-1.02.12-.28,0-.56-.02-.84-.02-.06,0-.12,0-.17,0-.44-.04-.88-.04-1.32-.08-.28-.02-.56-.04-.84-.07-.47-.05-.93-.11-1.39-.16-.53-.06-1.05-.12-1.58-.18-.5-.06-1.01-.11-1.51-.16-.4-.04-.8-.08-1.2-.13-.39-.04-.79-.08-1.18-.1-.85-.03-1.69-.02-2.54.03-.2.01-.39.02-.59.03-.52.04-1.04.07-1.56.11-.29.02-.57.05-.86.07-.41.03-.83.07-1.24.09-.39.02-.77.03-1.16.01-.44-.01-.88.03-1.32.04-.41.01-.81,0-1.22,0-.3,0-.59-.03-.89-.04-.31-.02-.62-.06-.93-.07-.16,0-.32-.02-.49-.03-.51-.05-1.02-.03-1.53.05-.55.09-1.09.23-1.62.42-.62.22-1.2.51-1.69.95-.26.23-.52.47-.68.78-.25.47-.38.98-.42,1.51,0,.05,0,.1,0,.15.44.7,1.08,1.55,1.94,2.35,0,0,0,0,0,0,.04-.03.06.02.08.04.07.08.14.15.23.22.43.34.91.61,1.41.85.71.34,1.45.59,2.21.8,1.16.32,2.34.44,3.54.52.2.01.4.02.6.03.43.03.86.03,1.29.01.57-.03,1.13-.07,1.7-.14.4-.04.81-.09,1.21-.16.72-.13,1.43-.31,2.14-.49.52-.13,1.03-.27,1.54-.45.6-.22,1.21-.43,1.81-.65.9-.33,1.79-.69,2.66-1.11,1.19-.57,2.33-1.24,3.47-1.9.06-.03.12-.07.17-.1,0,0,.03,0,.04,0,0,0,.01.01.01.02,1.13-.69,2.25-1.4,3.27-2.09.09-.1.17-.21.26-.32.16-.2.27-.44.32-.7ZM25.02,24.74s-.07.05-.11.07c-.3.19-.61.36-.93.51-.45.21-.88.44-1.31.68-.05.03-.11.06-.17.08-.08.02-.14,0-.2-.05-.05-.06-.06-.13-.02-.2.04-.09.1-.16.16-.24.13-.18.26-.36.36-.57.03-.06.06-.13.07-.2.03-.14,0-.22-.13-.29-.07-.04-.14-.07-.21-.08-.2-.04-.4-.07-.61-.04-1.12.12-2.18.46-3.19.96-.58.29-1.13.64-1.61,1.09-.18.17-.35.35-.49.56-.12.17-.18.36-.14.57,0,.02,0,.05,0,.07,0,.06-.03.11-.1.13-.06.02-.11-.01-.15-.06-.08-.13-.12-.28-.09-.44.03-.2.12-.38.24-.55.2-.28.44-.53.71-.75.7-.59,1.5-1.02,2.35-1.35.68-.27,1.38-.47,2.11-.59.35-.06.69-.07,1.04.01.14.03.27.08.39.17.22.16.31.39.26.65-.03.14-.08.26-.15.38-.03.06-.07.11-.1.18.07,0,.1-.03.14-.05.37-.18.73-.36,1.11-.51.2-.08.41-.16.62-.21.04,0,.07-.02.11-.03.03,0,.06-.01.08.02.02.04-.01.06-.04.08Z"/>
  <path class="st0" d="M1.3,24.27c0,.35.06.69.2,1.01.11.26.23.5.38.74.52.85,1.19,1.58,1.98,2.19.94.72,1.99,1.18,3.13,1.46.65.16,1.32.26,1.98.37.21.04.41.07.62.11.06,0,.12.02.15-.05.1-.22.19-.44.29-.66.03-.06,0-.09-.06-.1-.09-.01-.19-.02-.28-.03-.79-.09-1.58-.22-2.35-.43-.88-.25-1.74-.55-2.55-.98-.46-.25-.91-.53-1.31-.88-.1-.09-.19-.19-.24-.32-.01-.03-.04-.06,0-.09-.86-.8-1.5-1.65-1.94-2.35Z"/>
  <path class="st0" d="M5.04,20.32s-1.94-2.92-2.14-5.24c-.2-2.33-.41-4.81,1.04-6.89,1.45-2.08,2.98-2.12,3.73-2.1.75.02,2.26,0,4.75.82s7.04,3.28,7.96,4.3l-.51,1.43-1.1,1.02s-2.71-2.75-5.73-3.18c-3.02-.43-5.45-.55-6.12-.24-.67.31-2.57,1.49-2.69,3.47s1.69,6.53,1.69,6.53l-.88.1Z"/>
  <path class="st0" d="M27.33,16.34s2.94,2.51,3.77,4.37l-2.2-.12-2.22-2.04.65-2.2Z"/>
  <path class="st1" d="M14.78,2.05s.48-.44-.69-.5c0,0,.31-.78,3.43.47s4.04,1.94,4.61,2.49,2.24,2.49,2.24,2.49c0,0-1.88-.82-3.08-1.59-1.2-.78-1.92-1.04-1.92-1.04,0,0,.22.57.12.88-.1.31-.51,1.2-2.47.86-1.96-.35-3.16-1.88-3.43-2.67-.27-.8.27-1.42,1.18-1.37Z"/>
  <path class="st1" d="M7,2.1s1.13,1.35,2.51,1.07c1.38-.28,4.93-1.25,5.69-1.1.76.15-.49-.7-.49-.7l-3.52.37-2.05.86-2.14-.49Z"/>
  <path class="st1" d="M5.71,28.2s3.21.73,6.03.4c2.82-.34,4.67-.83,4.67-.83,0,0-.45-1.54,2.87-2.93,3.33-1.39,3.9-.16,3.79.02-.1.18-.39.92-.39.92,0,0,2.31-1.14,3.08-1.33s1.14-.04,1.14-.04l-3.86,2.16-6.94,2.33-3.22.37-4.02-.2s-2.94-.61-3.16-.87Z"/>
  <path class="st1" d="M7.93,21.68c-.02-.35-.29-.66-.65-.65-1.63.03-3.32.51-4.49,1.72-.3.31-.56.66-.76,1.04-.08.16-.11.33-.07.5.04.15.16.31.3.39.15.08.33.12.5.07.16-.05.31-.15.39-.3.09-.18.2-.35.31-.51.19-.24.41-.46.66-.65.29-.21.59-.39.92-.53.45-.18.92-.3,1.39-.37.28-.03.56-.05.84-.06.17,0,.34-.07.46-.19.11-.11.2-.3.19-.46Z"/>
  <path class="st1" d="M4.61,2.71c-.09-.13-.21-.25-.37-.28-.15-.03-.35-.04-.48.06-.32.25-.62.51-.89.82-.26.3-.49.62-.69.96-.41.7-.7,1.48-.88,2.27-.12.49-.19.99-.26,1.48-.02.15.08.34.18.44.11.11.28.19.44.18.16,0,.33-.06.44-.18.03-.04.06-.08.1-.13.06-.1.08-.2.08-.31,0,0,0-.01,0-.02.12-.83.3-1.65.62-2.43.2-.44.43-.87.73-1.25.25-.31.53-.59.84-.84-.02.01-.03.03-.05.04.12-.09.21-.19.25-.34.04-.15.02-.35-.06-.48Z"/>
  <g>
    <path d="M31.59,20.44c0-.05,0-.1-.02-.16-.04-.18-.09-.36-.12-.55-.1-.6-.26-1.19-.46-1.77-.25-.73-.5-1.45-.83-2.15-.23-.47-.49-.93-.75-1.39-.55-.96-1.09-1.92-1.71-2.83-.33-.49-.61-.99-.8-1.54-.21-.58-.55-1.09-.93-1.58-.15-.19-.32-.35-.47-.54-.38-.49-.75-.98-1.14-1.46-.58-.72-1.2-1.42-1.9-2.03-.36-.32-.74-.62-1.16-.86-.58-.33-1.16-.65-1.73-.98-.56-.33-1.14-.61-1.75-.83-.6-.21-1.2-.39-1.83-.47-.22-.03-.45-.03-.67-.08-.49-.09-1-.12-1.5-.14-.24,0-.49,0-.73.02-.43.02-.86.06-1.28.15-.5.11-1,.23-1.45.49-.27.15-.55.24-.84.33-.1.03-.2.05-.3.09-.29.11-.59.11-.89.04-.48-.11-.96-.23-1.44-.34-.56-.13-1.12-.24-1.7-.22-.24,0-.47.06-.7.15-.54.23-1.02.54-1.43.96-.53.55-.99,1.16-1.33,1.84-.14.28-.3.56-.41.85-.2.54-.39,1.09-.56,1.64-.17.57-.32,1.15-.42,1.74-.08.51-.13,1.02-.17,1.54-.04.49-.04.97-.07,1.46-.01.23,0,.47.01.7.02.37.06.73.11,1.1.12.82.34,1.62.63,2.39.35.95.78,1.86,1.3,2.73.19.32.42.61.62.93.17.27.37.51.6.72.05.04.09.09.13.13.04.04.03.07-.02.1-.01,0-.03.01-.04.02-.85.35-1.54.92-2.07,1.66-.14.19-.29.38-.38.6-.14.33-.25.68-.33,1.04-.08.37-.06.74.05,1.1.16.53.41,1.01.7,1.47.45.72,1.02,1.33,1.66,1.89,1.11.97,2.4,1.54,3.85,1.8.56.1,1.12.17,1.68.27.58.1,1.16.19,1.74.26.38.04.77.07,1.16.09.64.04,1.29.06,1.88.08.28,0,.51-.01.74-.02.68-.03,1.36-.1,2.04-.21.92-.15,1.82-.37,2.72-.63.22-.06.43-.15.66-.2.59-.13,1.17-.28,1.73-.52.4-.17.8-.35,1.19-.53.35-.16.7-.31,1.04-.48.44-.22.86-.47,1.29-.71,1.16-.64,2.24-1.41,3.25-2.27.62-.53,1.23-1.08,1.83-1.62.51-.46.94-.98,1.34-1.52.23-.31.36-.67.48-1.03.07-.19.03-.37-.07-.53-.04-.06-.06-.12-.06-.19ZM27.71,14.07c-.03-.55-.07-1.1-.15-1.64,0-.06-.02-.11,0-.18.05.03.07.08.09.12.29.52.58,1.03.86,1.56.37.69.72,1.38,1.06,2.08.51,1.04.89,2.11,1.16,3.23.09.37.17.75.3,1.11.04.11.03.12-.08.14-.08.01-.16.02-.24.02-.22,0-.45-.04-.67-.03-.02-.06.03-.07.05-.1.06-.06.12-.12.18-.18.03-.04.07-.09.02-.14-.05-.05-.09,0-.12.03-.12.09-.23.19-.35.28-.05.04-.09.05-.14,0-.07-.06-.08-.08,0-.13.17-.12.34-.25.5-.39.04-.03.07-.06.1-.1.02-.03.03-.06,0-.09-.02-.03-.05-.04-.09-.03-.06.01-.1.05-.15.08-.17.12-.33.26-.5.39-.1.08-.12.08-.21,0-.04-.03-.05-.06,0-.1.08-.07.16-.13.24-.2.23-.19.43-.41.64-.62.07-.07.07-.08-.03-.12-.04-.01-.05-.04-.06-.07-.1-.29-.29-.52-.49-.73-.61-.64-1.25-1.26-1.91-1.85-.25-.22-.21-.14-.15-.46.1-.62.18-1.24.15-1.87ZM27.5,18.65c.12-.1.23-.2.35-.3.21-.18.41-.38.6-.57.08-.08.08-.08.16,0,.06.05.11.11.16.16.02.02.04.04.04.06,0,.04-.02.05-.03.07-.04.04-.08.08-.12.12-.25.23-.5.47-.75.7-.1.09-.1.09-.21,0-.07-.05-.13-.1-.19-.15-.05-.04-.04-.07,0-.1ZM27.4,18.5c-.1.09-.1.09-.21,0-.07-.06-.2-.09-.2-.18,0-.07.12-.13.19-.19.28-.25.57-.5.84-.76.03-.03.05-.06.09-.07.04,0,.28.21.28.26,0,.04-.03.06-.05.08-.27.25-.54.5-.81.74-.04.04-.08.07-.12.11ZM28.05,19.02c.16-.14.32-.29.48-.43.12-.12.24-.24.36-.36.03-.03.05-.06.1-.06.01,0,.03.02.05.03.08.08.17.15.25.23.04.04.04.07,0,.1-.2.14-.36.34-.54.51-.11.1-.21.19-.32.29-.08.07-.08.07-.17,0-.07-.05-.13-.1-.19-.15-.08-.07-.08-.08,0-.15ZM28.63,19.36c.26-.2.5-.42.72-.65.1-.11.11-.1.22,0,.04.04.09.06.11.11,0,.04-.03.05-.05.07-.17.17-.35.32-.53.48-.1.09-.2.17-.29.25-.05.04-.09.05-.15.01-.24-.16-.2-.13-.02-.27ZM29.27,19.46c.18-.15.36-.29.5-.47.05-.06.08-.05.13,0,.01,0,.02.02.03.03.11.1.12.12,0,.22-.22.21-.45.41-.68.62-.12.11-.12.11-.26.02-.04-.03-.08-.05-.13-.09.14-.12.27-.22.4-.32ZM27.42,16.65s.04,0,.05.02c.19.15.19.17,0,.32-.05.04-.1.08-.15.12,0,0-.02-.01-.03-.02.04-.15.07-.3.13-.44ZM27.26,17.36c.14-.12.29-.23.43-.35.05-.04.09-.04.13,0,.16.14.16.14,0,.28-.25.23-.51.46-.77.68-.01,0-.02.01-.07.04.07-.21.13-.39.19-.57.01-.04.04-.06.07-.09ZM25.79,9.18c.3.45.48.95.69,1.45.27.65.38,1.34.48,2.03.08.54.12,1.08.14,1.63.04.99-.1,1.96-.36,2.92-.16.59-.33,1.17-.58,1.72-.16.34-.33.68-.52,1.01-.05.09-.11.13-.23.12-.57-.07-1.14-.14-1.71-.2-.4-.04-.81-.08-1.21-.13-.1-.01-.2-.02-.34-.04.33-.24.48-.57.69-.86.35-.48.61-1.01.86-1.55.24-.54.5-1.09.75-1.63.15-.32.28-.65.39-.99.02-.05.07-.12,0-.15-.07-.03-.09.05-.12.09-.52.8-1.03,1.6-1.56,2.39-.34.52-.71,1.03-1.11,1.51-.3.35-.63.67-.95.99-.05.05-.11.07-.18.06-.16-.01-.31-.02-.47-.03-.58-.05-1.16-.06-1.75-.05-.53.02-1.06.03-1.59.07-.33.02-.66.04-.99.06-.55.03-1.1.1-1.65.19-.72.11-1.44.23-2.17.3-.29.03-.58.04-.87.06-.11,0-.23.01-.34.03-.29.03-.57.01-.86,0-.02,0-.04,0-.05,0,0-.05.04-.05.07-.07.44-.28.84-.6,1.26-.9.02-.02.05-.03.07-.05.1-.07.11-.07.19.02.15.18.36.19.58.16.14-.02.27-.07.39-.13.47-.25.93-.5,1.34-.84.09-.08.18-.16.25-.25.02-.03.05-.06.03-.1-.03-.05-.07-.04-.11-.03-.3.07-.59.18-.86.31-.34.16-.67.33-1.01.49-.07.04-.15.07-.23.09-.08.02-.15.01-.21-.05-.12-.12-.19-.12-.33-.04-.12.07-.23.16-.33.26-.46.43-.97.78-1.5,1.1-.07.04-.15.07-.23.06-.2-.01-.4-.03-.6-.03,0-.08.05-.11.09-.14.14-.11.27-.23.41-.33.68-.52,1.36-1.06,2.11-1.48.55-.32,1.12-.6,1.7-.85.6-.26,1.17-.57,1.75-.86.53-.27,1.06-.54,1.57-.86.68-.43,1.31-.91,1.92-1.43.33-.28.63-.58.94-.89.61-.62,1.14-1.31,1.57-2.07.21-.36.38-.74.53-1.13.14-.35.32-.68.49-1.02.11-.21.26-.38.43-.53.35-.31.73-.58,1.17-.73.34-.12.66-.08.97.12.5.32.85.75,1.17,1.24ZM5.37,14.08c-.2-.51-.33-1.03-.4-1.57-.01-.09,0-.17.03-.25.2-.43.45-.83.79-1.17.19-.19.42-.31.66-.42.55-.27,1.14-.37,1.75-.37.09,0,.18,0,.27,0,.08,0,.09.02.08.1-.08.36-.08.72-.07,1.08.03.63.09,1.25.25,1.86.07.25.17.48.27.71,0,.02.02.04.03.07.06.14.05.16-.09.2-.36.11-.72.18-1.09.23-.25.03-.5.09-.75.09-.37.01-.73-.05-1.1-.1-.1-.01-.2-.06-.3-.1-.16-.08-.26-.19-.32-.36ZM5.58,20.05c-.06.02-.11.03-.17.03,0-.06.02-.11.07-.12.05,0,.07.05.09.09ZM4.19,18.06c.06-.09.12-.17.18-.26.12.11.13.19.06.31-.06.09-.12.18-.18.27,0,0-.02.01-.03.02-.12-.18-.12-.19-.02-.34ZM4.06,17.96s-.01.01-.03.02c-.12-.15-.12-.19-.04-.34.06-.09.12-.17.19-.25.03-.03.06-.04.08,0,.04.1.08.19,0,.29-.07.08-.13.18-.19.27ZM4.34,18.59c.06-.1.12-.2.18-.29.04-.06.06-.06.09,0,0,0,0,0,0,.01q.12.22-.03.43c-.04.05-.08.11-.12.16,0,0-.02,0-.04.01-.05-.07-.08-.15-.11-.23-.01-.03,0-.07.02-.09ZM4.48,14.39c.03-.39.08-.77.19-1.14.05.33.17.64.27.95.04.11.02.15-.08.22-.1.07-.2.08-.31.06-.05,0-.08-.03-.08-.08ZM4.56,19.08c.07-.11.14-.22.23-.34.03.03.04.04.05.05.11.2.12.15-.01.33-.04.06-.08.12-.12.17-.01.02-.03.04-.06.02-.06-.03-.11-.18-.08-.24ZM4.86,19.42c.05-.08.09-.17.16-.24.06.05.07.11.1.16.02.04.02.08,0,.12-.06.1-.11.2-.17.29-.02.04-.05.04-.08,0-.1-.13-.1-.19,0-.33ZM5.07,19.98c.05-.11.1-.21.16-.32.02-.04.05-.04.08,0,.06.06.07.11.03.19-.05.08-.1.16-.15.24-.01.02-.02.04-.05.04-.04,0-.08-.1-.06-.14ZM18.93,12.62c-.11.09-.21.19-.31.29-.03.03-.05.06-.1.06-.01,0-.04-.02-.05-.03-.09-.06-.18-.13-.26-.2-.09-.07-.09-.08,0-.16.21-.19.41-.38.63-.57.33-.29.65-.59.95-.91.12-.12.12-.12.25-.01.06.04.11.09.17.14.1.09.1.1.04.21-.1.18-.25.3-.4.42-.3.26-.6.51-.9.76ZM19.51,12.42c-.2.28-.4.55-.66.78-.04.03-.07.04-.11,0-.05-.05-.03-.08.01-.12.18-.16.35-.32.53-.48.07-.06.14-.14.23-.18ZM15.76,12.04c0-.14.02-.15.14-.09.2.1.4.21.6.31.55.31,1.05.69,1.54,1.09.07.06.14.13.21.2.08.09.08.1-.01.18-.14.12-.28.23-.42.34-.18.14-.36.26-.54.4-.07.06-.15.07-.24.05-.15-.03-.31-.04-.47-.08-.26-.05-.44-.21-.54-.45-.13-.31-.2-.64-.23-.97-.02-.22-.04-.44-.03-.64,0-.13,0-.24,0-.35ZM19.74,10.89s-.04.05-.06.07c-.26.24-.52.48-.79.7-.29.24-.58.49-.85.76-.1.1-.1.1-.21.01-.16-.12-.16-.12,0-.26.47-.42.96-.84,1.4-1.29.06-.06.12-.13.17-.19.04-.05.08-.06.13-.01.06.05.13.1.19.15.02.01.03.03.03.05ZM19.26,10.54s-.04.05-.06.07c-.27.27-.55.53-.84.78-.27.23-.54.45-.79.71-.09.09-.09.09-.19.02-.19-.12-.19-.12-.02-.26.52-.46,1.01-.94,1.47-1.46.02-.02.04-.04.06-.06.03-.04.07-.05.11-.02.08.05.16.11.23.16.02.01.03.03.02.06ZM18.73,10.26c-.24.23-.47.46-.71.69-.28.27-.57.54-.85.81-.03.03-.06.06-.09.09-.02.02-.04.03-.06.02-.09-.04-.17-.09-.24-.15-.03-.03,0-.06.02-.08.11-.09.21-.18.32-.27.44-.39.86-.8,1.27-1.22.15-.15.21-.15.36,0,.01.01.02.03.03.04,0,.04-.03.06-.05.08ZM18.22,10.05c-.51.49-1.03.97-1.56,1.43-.11.1-.12.1-.25.03-.05-.02-.09-.05-.14-.08.01-.05.04-.06.06-.08.59-.44,1.1-.96,1.6-1.49.02-.02.04-.04.06-.06.08-.07.09-.07.19-.01.23.14.19.11.04.26ZM17.88,9.71c-.43.39-.82.82-1.25,1.21-.14.13-.28.24-.42.36-.07.05-.13.07-.21.03-.08-.04-.16-.07-.23-.11-.04-.02-.04-.05-.01-.08.03-.03.05-.05.08-.08.49-.45.97-.92,1.44-1.4.06-.06.12-.13.18-.19.03-.03.07-.06.11-.03.11.06.22.12.32.19.02,0,.03.02.03.05,0,.03-.02.04-.04.06ZM17.23,9.38c-.19.19-.37.39-.56.58-.35.35-.71.7-1.06,1.05-.09.09-.09.09-.21.04-.03-.01-.05-.02-.08-.04-.11-.05-.11-.06-.02-.15.41-.4.81-.82,1.21-1.24.13-.14.25-.27.38-.41.09-.09.1-.09.21-.03.05.03.1.05.15.08.02,0,.03.02.03.05,0,.04-.03.06-.05.08ZM16.78,9.07s-.06.06-.09.09c-.46.46-.92.92-1.36,1.39-.07.08-.15.16-.22.24-.04.05-.09.06-.15.03-.09-.04-.17-.08-.28-.12.07-.09.15-.15.22-.21.32-.28.61-.58.9-.88.22-.22.43-.43.65-.65.1-.1.25-.08.33.02.02.02.02.04,0,.06ZM14.7,11.38c.21.08.41.19.61.28.1.05.1.05.08.17-.06.33-.11.67-.12,1.01-.01.34.04.68.13,1,.05.17.05.17-.12.24-.21.08-.44.12-.66.17-.55.12-1.09.24-1.64.32-.32.05-.64.07-.97.05-.09,0-.17,0-.26,0-.55,0-1.08-.09-1.62-.21-.15-.04-.3-.09-.45-.15-.09-.03-.15-.09-.19-.18-.21-.46-.37-.93-.46-1.43-.07-.41-.13-.82-.15-1.24-.02-.32-.03-.64,0-.96.01-.14.02-.14.16-.14.34,0,.69.04,1.03.07.51.05,1.02.11,1.52.19,1.06.17,2.11.39,3.12.8ZM3.06,19.12c-.46-.66-.83-1.36-1.15-2.09-.37-.85-.69-1.71-.89-2.61-.12-.55-.21-1.1-.26-1.66-.05-.65-.04-1.3-.02-1.95.03-.87.13-1.73.31-2.59.24-1.11.56-2.18,1.07-3.2.26-.52.59-.99.97-1.43.46-.54,1.04-.93,1.65-1.29.11-.07.24-.09.37-.09.37-.02.72.03,1.08.1.58.12,1.15.26,1.73.4.13.03.27.06.4.09.4.11.79.06,1.17-.04.34-.09.67-.22.97-.41.38-.23.8-.33,1.22-.43.61-.14,1.22-.21,1.84-.24.32-.02.64-.02.96-.01.44.01.88.07,1.32.15.44.08.86.21,1.28.36.71.25,1.41.51,2.08.86.94.49,1.83,1.04,2.62,1.74.43.38.84.77,1.26,1.15.39.36.78.74,1.15,1.12.08.08.16.16.23.28-.15-.03-.26-.07-.39-.08-.24-.02-.47,0-.69.08-.69.25-1.26.67-1.71,1.25-.08.11-.14.23-.21.34-.23.44-.43.9-.63,1.35-.09.21-.2.42-.3.64-.02.03-.03.07-.07.1-.06-.01-.09-.06-.14-.1-.87-.77-1.83-1.4-2.84-1.96-.42-.24-.85-.46-1.27-.69-.51-.27-1.04-.5-1.58-.7-.6-.22-1.19-.44-1.79-.64-.7-.23-1.41-.43-2.13-.57-.11-.02-.22-.05-.34-.04-.03,0-.07,0-.1,0-.04,0-.08.01-.08.06,0,.04.04.05.07.05.22.04.43.11.65.17.76.21,1.5.49,2.24.77.6.23,1.2.47,1.8.7.46.18.89.41,1.32.65.11.06.11.07.02.15-.56.53-1.1,1.08-1.63,1.63,0,0-.01.01-.02.02-.14.14-.15.14-.35.04.07-.08.14-.15.2-.21.37-.34.73-.69,1.06-1.07.02-.02.05-.05.07-.08.02-.02.04-.05,0-.08-.03-.02-.06,0-.08.01-.07.05-.13.11-.2.17-.39.35-.77.7-1.15,1.06-.15.15-.19.15-.41.03.08-.08.16-.15.24-.22.18-.15.32-.33.47-.5.02-.03.07-.06.03-.09-.03-.03-.07.02-.1.04-.1.09-.2.18-.3.26-.16.14-.32.27-.49.4-.04.03-.08.07-.14.06-.05-.01-.13,0-.15-.06-.02-.06.05-.08.08-.12.09-.09.18-.18.27-.28.02-.03.07-.06.03-.09-.03-.03-.06,0-.09.02-.09.07-.19.13-.26.22-.16.19-.34.21-.58.15-.66-.17-1.33-.29-2.01-.37-.39-.05-.78-.08-1.17-.1-.29-.02-.58-.02-.87-.02-.55,0-1.09.07-1.61.24-.03.01-.06.02-.1.03-.94.22-1.64.77-2.18,1.54-.48.69-.76,1.46-.9,2.29-.08.46-.12.93-.12,1.4,0,.46.09.9.19,1.35.03.15.07.31.11.46.02.08,0,.14-.05.21-.09.11-.17.22-.27.35-.06-.07-.08-.15-.11-.22-.12-.29-.21-.59-.29-.89-.17-.61-.34-1.22-.44-1.84-.12-.76-.18-1.52-.13-2.28.07-.97.26-1.91.62-2.82.25-.61.55-1.19.93-1.72.25-.35.55-.65.89-.91.38-.29.8-.46,1.26-.56.11-.02.22-.02.33-.03.04,0,.11,0,.11-.06,0-.06-.07-.05-.11-.07-.28-.07-.55-.03-.82.04-.47.12-.87.37-1.24.67-.49.4-.83.9-1.14,1.44-.65,1.14-1,2.38-1.17,3.68-.06.5-.05,1-.02,1.5.03.51.09,1.01.18,1.51.07.36.17.71.26,1.06.13.48.26.97.45,1.43.18.43.37.85.56,1.27.15.35.34.69.56,1,.08.12.15.25.21.37.04.08.04.08-.05.11-.17.05-.34.1-.51.15-.08.03-.14,0-.19-.06-.32-.4-.65-.79-.94-1.21ZM10.79,30.29s-.08,0-.11,0h0c-.22-.02-.44-.04-.65-.07-.12-.01-.12-.02-.06-.13.09-.19.17-.38.26-.57.05-.12.06-.12.18-.11.23.02.46.04.68.06.09,0,.1.02.07.11-.08.22-.16.43-.24.64-.02.06-.06.1-.13.08ZM11.8,30.33c-.23,0-.46-.01-.69-.03-.06,0-.08-.03-.06-.08.1-.23.2-.46.28-.69.02-.06.06-.07.11-.06.12,0,.24,0,.36,0,0,0,0,.01,0,.02.11,0,.22,0,.33,0,.16,0,.17,0,.1.16-.03.08-.07.16-.11.23-.06.12-.13.25-.19.37-.03.06-.07.09-.13.09ZM12.25,30.33s-.04,0-.06,0c-.08,0-.09-.02-.05-.09.12-.23.23-.46.33-.69.03-.06.17-.1.22-.07.02.01.02.03.02.05,0,.03-.02.05-.03.08-.08.2-.16.4-.25.59-.05.12-.06.13-.19.12ZM12.92,30.36s-.08,0-.11,0c-.22,0-.22,0-.13-.2.08-.19.16-.38.23-.57.03-.09.08-.14.18-.13.08,0,.15-.02.23-.02.08,0,.09.02.06.08-.12.25-.23.51-.34.77-.02.05-.06.07-.11.07ZM13.47,30.34c-.08,0-.17.05-.22,0-.05-.06.03-.14.07-.2.09-.2.2-.4.29-.61.04-.09.1-.14.2-.13.05,0,.1-.03.15,0,.01.06-.02.1-.04.14-.1.24-.23.47-.32.72-.02.06-.06.09-.13.09ZM14.39,30.29c-.22.02-.44.03-.69.04.08-.14.13-.25.19-.36.1-.18.19-.35.27-.54.03-.06.06-.09.13-.1.16-.01.32-.04.48-.05.1,0,.12.02.1.11-.04.16-.11.31-.19.45-.06.11-.12.23-.18.34-.03.05-.06.09-.11.1ZM15.25,30.21c-.18.02-.36.04-.54.05-.05,0-.06-.02-.04-.06,0-.01.01-.03.02-.04.15-.25.27-.52.36-.79.03-.08.08-.12.16-.14.17-.03.35-.06.52-.09.02,0,.04,0,.06.01.02.05-.02.08-.03.12-.13.27-.25.53-.35.81-.03.07-.07.11-.14.12ZM16.14,30.01s-.04.08-.1.09c-.13.02-.25.04-.38.05-.07,0-.09-.01-.06-.08,0-.02.02-.03.02-.05.14-.28.28-.55.4-.84.03-.07.08-.12.16-.13.16-.02.31-.08.47-.1.02.06-.02.1-.04.14-.17.3-.32.61-.47.92ZM16.67,30.01c-.11,0-.22.05-.35.03.04-.07.07-.13.1-.2.14-.29.3-.57.43-.87.02-.06.06-.09.12-.11.17-.04.34-.09.51-.13.02,0,.04,0,.06,0,0,.05-.03.09-.05.13-.13.24-.25.47-.38.7-.04.07-.08.13-.1.2-.05.18-.17.23-.34.24ZM17.84,29.63c-.03.17-.13.25-.3.26-.13,0-.26.04-.4.05-.01,0-.03,0-.04,0-.01-.05.02-.07.04-.11.21-.35.43-.7.58-1.08.02-.04.04-.09.09-.1.16-.05.32-.09.48-.13.02.07-.02.12-.04.16-.12.27-.24.55-.36.82-.02.04-.04.09-.05.13ZM18.71,29.53c-.03.06-.07.1-.13.11-.19.04-.37.09-.56.13-.01,0-.03,0-.04,0,0-.05.03-.08.05-.12.2-.35.37-.72.52-1.1.04-.1.1-.15.2-.18.19-.06.38-.13.57-.19.04.04,0,.07,0,.1-.12.29-.26.57-.4.85-.07.13-.13.27-.19.4ZM20.49,29.02c-.48.18-.96.36-1.45.5-.04.01-.08.03-.14.02.08-.15.16-.29.24-.43.17-.3.32-.62.44-.95.02-.07.06-.11.13-.14.51-.19,1.02-.38,1.53-.57.03,0,.05-.02.09,0,.01.05-.02.1-.03.14-.13.35-.29.7-.42,1.05-.07.2-.19.3-.39.37ZM22.71,27.96c-.5.26-1.01.51-1.51.75-.05.02-.1.05-.16.06-.03-.04,0-.08.01-.11.14-.32.3-.63.41-.96.03-.09.07-.18.08-.27.01-.08.06-.12.13-.15.26-.1.52-.21.78-.32.3-.13.6-.28.9-.41.04-.02.08-.05.14-.05,0,.07-.04.12-.06.17-.19.38-.38.77-.57,1.15-.03.07-.08.11-.15.15ZM31.17,21.02c-.05.26-.15.5-.32.7-.4.49-.81.97-1.28,1.39-.46.41-.92.82-1.39,1.22-.53.46-1.07.9-1.62,1.32-.69.53-1.42.98-2.18,1.41-.41.23-.81.47-1.23.67-.04.02-.08.05-.15.06.14-.25.28-.48.41-.71.11-.2.23-.4.31-.61.04-.11.11-.18.22-.23.9-.47,1.77-.98,2.62-1.53.23-.15.45-.32.67-.49.03-.02.05-.04.07-.07.01-.01.02-.03,0-.05,0,0-.03,0-.04,0-.06.03-.12.06-.17.1-1.14.66-2.28,1.33-3.47,1.9-.87.42-1.75.78-2.66,1.11-.6.22-1.2.43-1.81.65-.5.18-1.02.32-1.54.45-.71.18-1.42.36-2.14.49-.4.07-.8.11-1.21.16-.56.06-1.13.11-1.7.14-.43.02-.86.02-1.29-.01-.2-.01-.4-.02-.6-.03-1.19-.08-2.38-.21-3.54-.52-.76-.21-1.5-.46-2.21-.8-.5-.24-.97-.51-1.41-.85-.08-.07-.16-.14-.23-.22-.02-.02-.04-.07-.08-.04-.03.02,0,.06,0,.09.05.13.14.23.24.32.4.35.84.63,1.31.88.81.44,1.67.74,2.55.98.77.22,1.56.34,2.35.43.09.01.19.02.28.03.06,0,.09.03.06.1-.1.22-.19.44-.29.66-.03.07-.09.06-.15.05-.21-.04-.41-.07-.62-.11-.66-.12-1.33-.22-1.98-.37-1.14-.28-2.2-.74-3.13-1.46-.79-.61-1.45-1.34-1.98-2.19-.15-.24-.27-.48-.38-.74-.16-.37-.23-.76-.2-1.16.04-.53.17-1.03.42-1.51.17-.32.42-.55.68-.78.49-.44,1.07-.72,1.69-.95.53-.19,1.07-.34,1.62-.42.51-.08,1.02-.1,1.53-.05.16.01.32.03.49.03.31,0,.62.05.93.07.3.02.59.04.89.04.41,0,.81,0,1.22,0,.44-.01.88-.06,1.32-.04.39.01.77,0,1.16-.01.41-.02.83-.06,1.24-.09.29-.02.57-.05.86-.07.52-.04,1.04-.07,1.56-.11.2-.01.39-.02.59-.03.84-.05,1.69-.06,2.54-.03.4.01.79.05,1.18.1.4.04.8.08,1.2.13.5.05,1.01.11,1.51.16.53.06,1.05.12,1.58.18.46.05.93.11,1.39.16.28.03.56.05.84.07.44.03.88.03,1.32.08.06,0,.11,0,.17,0,.28,0,.56.01.84.02.34.01.69.01,1.02-.12.08-.03.11-.01.09.08Z"/>
    <path d="M24.98,24.64s-.07.02-.11.03c-.21.05-.42.13-.62.21-.38.15-.74.33-1.11.51-.04.02-.08.05-.14.05.04-.06.07-.12.1-.18.07-.12.13-.25.15-.38.05-.27-.04-.49-.26-.65-.12-.08-.25-.13-.39-.17-.35-.08-.69-.07-1.04-.01-.72.12-1.43.32-2.11.59-.85.33-1.65.76-2.35,1.35-.26.22-.51.46-.71.75-.12.17-.2.34-.24.55-.03.16,0,.3.09.44.03.05.08.08.15.06.06-.02.09-.07.1-.13,0-.02,0-.05,0-.07-.05-.21.02-.4.14-.57.14-.21.31-.39.49-.56.48-.44,1.03-.8,1.61-1.09,1.01-.5,2.07-.84,3.19-.96.21-.02.41,0,.61.04.08.01.15.04.21.08.12.07.15.16.13.29-.01.07-.04.14-.07.2-.1.2-.23.38-.36.57-.06.08-.12.15-.16.24-.03.07-.03.14.02.2.05.06.12.08.2.05.06-.02.11-.05.17-.08.43-.24.86-.47,1.31-.68.32-.15.63-.32.93-.51.04-.02.07-.05.11-.07.03-.02.06-.04.04-.08-.02-.03-.05-.02-.08-.02Z"/>
    <path d="M13.66,3.91c.59.94,1.37,1.67,2.4,2.1.66.28,1.34.42,2.05.36.32-.03.63-.12.91-.28.58-.33.78-.83.56-1.46,0-.03-.03-.05,0-.09.11.03.22.09.32.15.31.17.61.35.92.53.43.26.85.51,1.29.74.05.02.1.06.16.05,0-.06-.04-.08-.08-.1-.59-.43-1.18-.86-1.8-1.26-.32-.21-.65-.39-1-.55-.11-.05-.19-.04-.24.02-.05.06-.04.12.02.22.11.18.18.37.22.57.04.19.01.37-.1.53-.11.15-.25.28-.41.37-.29.16-.6.22-.92.23-.49,0-.97-.09-1.43-.25-.64-.22-1.21-.55-1.7-1.01-.32-.29-.61-.6-.84-.97-.17-.28-.29-.57-.27-.91.03-.42.18-.6.59-.69.12-.03.24-.05.36-.08.04-.01.11-.02.1-.08,0-.06-.07-.05-.12-.05-.23,0-.46.03-.68.1-.2.07-.36.2-.45.4-.11.24-.16.49-.12.75.03.24.12.45.24.65Z"/>
    <path d="M23.27,8.41c-.06.05-.1.11-.15.18-.22.34-.45.68-.69,1-.12.17-.24.34-.36.52-.02.03-.04.06-.06.1-.02.05-.02.1.02.14.04.04.09.03.13,0,.03-.01.05-.03.07-.04.16-.09.29-.04.35.13.02.05.03.11.03.17,0,.14-.08.38-.2.58-.19.31-.44.58-.73.8-.11.09-.23.15-.37.19-.07.02-.14.03-.2-.02-.07-.05-.13-.03-.19.02-.03.03-.07.07-.1.1-.42.45-.8.93-1.19,1.39-.02.03-.07.06-.03.1.04.03.07-.01.09-.04.23-.2.46-.4.67-.63.21-.23.42-.45.62-.67.04-.04.07-.06.12-.04.09.04.18.02.27,0,.1-.03.2-.07.29-.13.37-.23.65-.56.88-.92.12-.19.21-.39.26-.62.05-.3-.07-.55-.34-.67-.06-.03-.07-.06-.03-.11.02-.03.04-.06.06-.1.23-.34.45-.7.67-1.05.06-.1.11-.21.19-.3.02-.03.06-.06.03-.1-.04-.04-.08-.02-.12,0Z"/>
  </g>
</svg>